<mxfile host="app.diagrams.net" modified="2024-02-08T18:04:15.660Z" agent="Mozilla/5.0 (Windows NT 10.0; Win64; x64; rv:122.0) Gecko/20100101 Firefox/122.0" version="23.1.1" etag="Z3v5dyyRxl955pQxdtfq" type="github">
  <diagram name="Pagina-1" id="0j5wQftBXvC-hM3FfMd6">
    <mxGraphModel>
      <root>
        <mxCell id="0" />
        <mxCell id="1" parent="0" />
      </root>
    </mxGraphModel>
  </diagram>
</mxfile>
